# xmcd
#
# Track frame offsets: 
#        150
#        37591
#        66888
#
# Disc length: 1316 seconds
#
# Revision: 1
# Processed by: cddbd v1.5.2PL0 Copyright (c) Steve Scherf et al.
# Submitted via: ExactAudioCopy v0.99pb5
#
DISCID=1a052203
DTITLE=Mantra Girl-Trinity - Mantra Girl-Trinity
DYEAR=2006
DGENRE=Meditative and Chants
TTITLE0=Wahe Guru
TTITLE1=Sa Re Sa Sa
TTITLE2=Loka Samasta Sukhino Bhavantu
EXTD=YEAR: 2006
EXTT0=
EXTT1=
EXTT2=
PLAYORDER=
